<svg xmlns="http://www.w3.org/2000/svg" xmlns:xlink="http://www.w3.org/1999/xlink" width="800" zoomAndPan="magnify" viewBox="0 0 600 225" height="300" preserveAspectRatio="xMidYMid meet" version="1.0"><defs><g/><clipPath id="984c20f6f5"><path d="M 354 61 L 577 61 L 577 149 L 354 149 Z M 354 61 " clip-rule="nonzero"/></clipPath><clipPath id="83a1988426"><path d="M 437.246094 -8.285156 L 592.246094 90.40625 L 493.558594 245.402344 L 338.558594 146.714844 Z M 437.246094 -8.285156 " clip-rule="nonzero"/></clipPath><clipPath id="9a5b27aed4"><path d="M 415.496094 25.878906 L 360.363281 112.464844 C 348.351562 131.335938 353.90625 156.367188 372.773438 168.382812 L 459.363281 223.511719 C 478.230469 235.527344 503.265625 229.96875 515.277344 211.101562 L 570.410156 124.511719 C 582.421875 105.644531 576.863281 80.613281 557.996094 68.597656 L 471.410156 13.46875 C 452.542969 1.453125 427.507812 7.011719 415.496094 25.878906 Z M 415.496094 25.878906 " clip-rule="nonzero"/></clipPath><clipPath id="cf39275973"><path d="M 437.246094 -8.285156 L 592.246094 90.40625 L 493.558594 245.402344 L 338.558594 146.714844 Z M 437.246094 -8.285156 " clip-rule="nonzero"/></clipPath><clipPath id="1253facd40"><path d="M 437.246094 -8.285156 L 592.246094 90.40625 L 493.558594 245.402344 L 338.558594 146.714844 Z M 437.246094 -8.285156 " clip-rule="nonzero"/></clipPath></defs><g clip-path="url(#984c20f6f5)"><g clip-path="url(#83a1988426)"><g clip-path="url(#9a5b27aed4)"><g clip-path="url(#cf39275973)"><g clip-path="url(#1253facd40)"><path fill="#ffffff" d="M 590.335938 93.226562 C 506.5 39.847656 394.863281 64.628906 341.484375 148.464844 L 338.636719 146.652344 C 340.25 144.117188 341.921875 141.621094 343.660156 139.164062 C 345.394531 136.710938 347.1875 134.300781 349.039062 131.933594 C 350.894531 129.566406 352.804688 127.25 354.773438 124.976562 C 356.738281 122.703125 358.761719 120.480469 360.839844 118.308594 C 362.914062 116.132812 365.042969 114.015625 367.222656 111.945312 C 369.40625 109.875 371.636719 107.863281 373.914062 105.902344 C 376.195312 103.945312 378.523438 102.042969 380.894531 100.199219 C 383.269531 98.355469 385.683594 96.570312 388.144531 94.84375 C 390.605469 93.117188 393.109375 91.453125 395.652344 89.851562 C 398.195312 88.25 400.777344 86.710938 403.394531 85.234375 C 406.011719 83.757812 408.664062 82.347656 411.351562 81 C 414.042969 79.65625 416.761719 78.378906 419.511719 77.164062 C 422.261719 75.953125 425.039062 74.808594 427.847656 73.734375 C 430.652344 72.660156 433.484375 71.652344 436.34375 70.71875 C 439.199219 69.78125 442.074219 68.914062 444.976562 68.121094 C 447.875 67.328125 450.789062 66.601562 453.722656 65.953125 C 456.660156 65.300781 459.609375 64.722656 462.570312 64.214844 C 465.53125 63.710938 468.507812 63.277344 471.492188 62.914062 C 474.476562 62.554688 477.464844 62.269531 480.464844 62.054688 C 483.460938 61.84375 486.464844 61.703125 489.46875 61.636719 C 492.472656 61.570312 495.480469 61.578125 498.484375 61.660156 C 501.488281 61.742188 504.488281 61.898438 507.484375 62.128906 C 510.484375 62.359375 513.472656 62.660156 516.453125 63.035156 C 519.4375 63.414062 522.40625 63.863281 525.367188 64.386719 C 528.328125 64.90625 531.273438 65.503906 534.203125 66.167969 C 537.136719 66.835938 540.046875 67.574219 542.941406 68.386719 C 545.835938 69.195312 548.710938 70.078125 551.5625 71.027344 C 554.410156 71.980469 557.238281 73 560.039062 74.089844 C 562.839844 75.183594 565.613281 76.339844 568.355469 77.566406 C 571.101562 78.792969 573.8125 80.085938 576.492188 81.445312 C 579.175781 82.808594 581.820312 84.230469 584.429688 85.722656 C 587.039062 87.210938 589.613281 88.765625 592.148438 90.382812 " fill-opacity="1" fill-rule="nonzero"/></g></g></g></g></g><g fill="#ffffff" fill-opacity="1"><g transform="translate(10.337244, 148.243509)"><g><path d="M 26.734375 0.4375 C 22.253906 0.4375 17.988281 -0.332031 13.9375 -1.875 C 9.882812 -3.414062 6.722656 -5.410156 4.453125 -7.859375 L 6.46875 -11.1875 C 8.625 -8.914062 11.519531 -7.066406 15.15625 -5.640625 C 18.800781 -4.210938 22.632812 -3.5 26.65625 -3.5 C 32.476562 -3.5 36.875 -4.601562 39.84375 -6.8125 C 42.8125 -9.03125 44.296875 -11.914062 44.296875 -15.46875 C 44.296875 -18.207031 43.507812 -20.390625 41.9375 -22.015625 C 40.363281 -23.648438 38.410156 -24.90625 36.078125 -25.78125 C 33.753906 -26.65625 30.613281 -27.554688 26.65625 -28.484375 C 22.164062 -29.585938 18.566406 -30.664062 15.859375 -31.71875 C 13.148438 -32.769531 10.847656 -34.382812 8.953125 -36.5625 C 7.054688 -38.75 6.109375 -41.675781 6.109375 -45.34375 C 6.109375 -48.3125 6.894531 -51.035156 8.46875 -53.515625 C 10.039062 -55.992188 12.441406 -57.957031 15.671875 -59.40625 C 18.910156 -60.863281 22.945312 -61.59375 27.78125 -61.59375 C 31.164062 -61.59375 34.488281 -61.097656 37.75 -60.109375 C 41.007812 -59.117188 43.832031 -57.78125 46.21875 -56.09375 L 44.5625 -52.515625 C 42.113281 -54.203125 39.414062 -55.484375 36.46875 -56.359375 C 33.53125 -57.234375 30.632812 -57.671875 27.78125 -57.671875 C 22.132812 -57.671875 17.851562 -56.535156 14.9375 -54.265625 C 12.03125 -51.992188 10.578125 -49.050781 10.578125 -45.4375 C 10.578125 -42.695312 11.363281 -40.507812 12.9375 -38.875 C 14.507812 -37.25 16.457031 -36 18.78125 -35.125 C 21.113281 -34.25 24.289062 -33.316406 28.3125 -32.328125 C 32.789062 -31.222656 36.367188 -30.144531 39.046875 -29.09375 C 41.734375 -28.039062 44.019531 -26.453125 45.90625 -24.328125 C 47.800781 -22.203125 48.75 -19.335938 48.75 -15.734375 C 48.75 -12.753906 47.945312 -10.039062 46.34375 -7.59375 C 44.75 -5.15625 42.289062 -3.207031 38.96875 -1.75 C 35.644531 -0.289062 31.566406 0.4375 26.734375 0.4375 Z M 26.734375 0.4375 "/></g></g></g><g fill="#ffffff" fill-opacity="1"><g transform="translate(63.546564, 148.243509)"><g><path d="M 22.375 -57.140625 L 0.34375 -57.140625 L 0.34375 -61.15625 L 48.84375 -61.15625 L 48.84375 -57.140625 L 26.828125 -57.140625 L 26.828125 0 L 22.375 0 Z M 22.375 -57.140625 "/></g></g></g><g fill="#ffffff" fill-opacity="1"><g transform="translate(112.736785, 148.243509)"><g><path d="M 48.5 -17.21875 L 13.015625 -17.21875 L 5.25 0 L 0.4375 0 L 28.578125 -61.15625 L 33.03125 -61.15625 L 61.15625 0 L 56.359375 0 Z M 46.828125 -20.96875 L 30.75 -56.265625 L 14.765625 -20.96875 Z M 46.828125 -20.96875 "/></g></g></g><g fill="#ffffff" fill-opacity="1"><g transform="translate(174.333774, 148.243509)"><g><path d="M 53.125 0 L 38.53125 -20.453125 C 36.375 -20.160156 34.394531 -20.015625 32.59375 -20.015625 L 15.109375 -20.015625 L 15.109375 0 L 10.65625 0 L 10.65625 -61.15625 L 32.59375 -61.15625 C 40.28125 -61.15625 46.304688 -59.332031 50.671875 -55.6875 C 55.046875 -52.050781 57.234375 -47.003906 57.234375 -40.546875 C 57.234375 -35.710938 55.992188 -31.648438 53.515625 -28.359375 C 51.035156 -25.066406 47.5 -22.75 42.90625 -21.40625 L 58.1875 0 Z M 32.59375 -23.9375 C 39.113281 -23.9375 44.09375 -25.378906 47.53125 -28.265625 C 50.96875 -31.148438 52.6875 -35.242188 52.6875 -40.546875 C 52.6875 -45.847656 50.96875 -49.9375 47.53125 -52.8125 C 44.09375 -55.695312 39.113281 -57.140625 32.59375 -57.140625 L 15.109375 -57.140625 L 15.109375 -23.9375 Z M 32.59375 -23.9375 "/></g></g></g><g fill="#ffffff" fill-opacity="1"><g transform="translate(253.077148, 147.310704)"><g><path d="M 19.828125 -49.5625 L 0.34375 -49.5625 L 0.34375 -58.8125 L 50.234375 -58.8125 L 50.234375 -49.5625 L 30.75 -49.5625 L 30.75 0 L 19.828125 0 Z M 19.828125 -49.5625 "/></g></g></g><g fill="#ffffff" fill-opacity="1"><g transform="translate(315.167705, 147.310704)"><g><path d="M 46.375 0 L 34.359375 -17.21875 C 33.859375 -17.164062 33.101562 -17.140625 32.09375 -17.140625 L 18.8125 -17.140625 L 18.8125 0 L 7.890625 0 L 7.890625 -58.8125 L 32.09375 -58.8125 C 37.1875 -58.8125 41.625 -57.96875 45.40625 -56.28125 C 49.1875 -54.601562 52.082031 -52.195312 54.09375 -49.0625 C 56.113281 -45.925781 57.125 -42.203125 57.125 -37.890625 C 57.125 -33.460938 56.046875 -29.648438 53.890625 -26.453125 C 51.734375 -23.265625 48.640625 -20.890625 44.609375 -19.328125 L 58.140625 0 Z M 46.125 -37.890625 C 46.125 -41.640625 44.890625 -44.519531 42.421875 -46.53125 C 39.960938 -48.550781 36.351562 -49.5625 31.59375 -49.5625 L 18.8125 -49.5625 L 18.8125 -26.125 L 31.59375 -26.125 C 36.351562 -26.125 39.960938 -27.144531 42.421875 -29.1875 C 44.890625 -31.238281 46.125 -34.140625 46.125 -37.890625 Z M 46.125 -37.890625 "/></g></g></g><g fill="#ffffff" fill-opacity="1"><g transform="translate(388.096592, 147.310704)"><g><path d="M 46.046875 -13.609375 L 16.640625 -13.609375 L 10.84375 0 L -0.421875 0 L 26.046875 -58.8125 L 36.796875 -58.8125 L 63.34375 0 L 51.921875 0 Z M 42.421875 -22.1875 L 31.34375 -47.890625 L 20.328125 -22.1875 Z M 42.421875 -22.1875 "/></g></g></g><g fill="#ffffff" fill-opacity="1"><g transform="translate(462.537811, 147.310704)"><g><path d="M 35.125 0.84375 C 29.1875 0.84375 23.820312 -0.457031 19.03125 -3.0625 C 14.238281 -5.664062 10.484375 -9.265625 7.765625 -13.859375 C 5.054688 -18.453125 3.703125 -23.632812 3.703125 -29.40625 C 3.703125 -35.175781 5.070312 -40.359375 7.8125 -44.953125 C 10.5625 -49.546875 14.328125 -53.144531 19.109375 -55.75 C 23.898438 -58.351562 29.265625 -59.65625 35.203125 -59.65625 C 40.015625 -59.65625 44.410156 -58.8125 48.390625 -57.125 C 52.367188 -55.445312 55.726562 -53.015625 58.46875 -49.828125 L 51.421875 -43.1875 C 47.160156 -47.78125 41.921875 -50.078125 35.703125 -50.078125 C 31.671875 -50.078125 28.054688 -49.191406 24.859375 -47.421875 C 21.671875 -45.660156 19.179688 -43.210938 17.390625 -40.078125 C 15.597656 -36.941406 14.703125 -33.382812 14.703125 -29.40625 C 14.703125 -25.425781 15.597656 -21.867188 17.390625 -18.734375 C 19.179688 -15.597656 21.671875 -13.144531 24.859375 -11.375 C 28.054688 -9.613281 31.671875 -8.734375 35.703125 -8.734375 C 41.921875 -8.734375 47.160156 -11.054688 51.421875 -15.703125 L 58.46875 -8.984375 C 55.726562 -5.796875 52.351562 -3.359375 48.34375 -1.671875 C 44.34375 0.00390625 39.9375 0.84375 35.125 0.84375 Z M 35.125 0.84375 "/></g></g></g><g fill="#ffffff" fill-opacity="1"><g transform="translate(535.130635, 147.310704)"><g><path d="M 52 -9.15625 L 52 0 L 7.890625 0 L 7.890625 -58.8125 L 50.828125 -58.8125 L 50.828125 -49.65625 L 18.8125 -49.65625 L 18.8125 -34.359375 L 47.21875 -34.359375 L 47.21875 -25.375 L 18.8125 -25.375 L 18.8125 -9.15625 Z M 52 -9.15625 "/></g></g></g></svg>